PathFileType	4	(X/Y/Z)	C:\Users\86182\Documents\cortex\Trimmed_M4_L5.trc
DataRate	CameraRate	NumFrames	NumMarkers	Units	OrigDataRate	OrigDataStartFrame	OrigNumFrames
100.00	100.00	       144	2	mm	100.00	1	       901
Frame#	Time	gripper			box			
		X1	Y1	Z1	X2	Y2	Z2	

1	0.000	277.27612	150.17548	192.21092	283.57645	147.83942	54.93601	
2	0.010	277.27475	150.17477	192.21033	283.57477	147.83923	54.93678	
3	0.020	277.27319	150.17416	192.20905	283.57135	147.83994	54.93819	
4	0.030	277.27158	150.17368	192.20718	283.56754	147.84167	54.93981	
5	0.040	277.27014	150.17328	192.20520	283.56616	147.84386	54.94064	
6	0.050	277.26917	150.17296	192.20378	283.56970	147.84554	54.93978	
7	0.060	277.26892	150.17273	192.20337	283.57806	147.84637	54.93721	
8	0.070	277.26944	150.17265	192.20396	283.58917	147.84662	54.93365	
9	0.080	277.27057	150.17271	192.20531	283.60107	147.84625	54.92973	
10	0.090	277.27222	150.17293	192.20712	283.61264	147.84491	54.92579	
11	0.100	277.27438	150.17339	192.20926	283.62219	147.84264	54.92239	
12	0.110	277.27689	150.17403	192.21150	283.62784	147.84012	54.92022	
13	0.120	277.27930	150.17470	192.21362	283.62906	147.83804	54.91956	
14	0.130	277.28119	150.17528	192.21532	283.62704	147.83678	54.92006	
15	0.140	277.28235	150.17570	192.21634	283.62375	147.83638	54.92109	
16	0.150	277.28284	150.17603	192.21657	283.62057	147.83670	54.92218	
17	0.160	277.28284	150.17636	192.21599	283.61786	147.83746	54.92318	
18	0.170	277.28265	150.17677	192.21474	283.61490	147.83850	54.92428	
19	0.180	277.28235	150.17726	192.21309	283.61084	147.83980	54.92574	
20	0.190	277.28183	150.17764	192.21135	283.60553	147.84125	54.92758	
21	0.200	277.28094	150.17780	192.20961	283.59949	147.84261	54.92958	
22	0.210	277.27975	150.17778	192.20779	283.59341	147.84363	54.93147	
23	0.220	277.27869	150.17780	192.20595	283.58862	147.84398	54.93275	
24	0.230	277.27835	150.17805	192.20445	283.58670	147.84329	54.93289	
25	0.240	277.27896	150.17859	192.20374	283.58774	147.84166	54.93191	
26	0.250	277.28000	150.17911	192.20392	283.59039	147.83942	54.93039	
27	0.260	277.28058	150.17915	192.20473	283.59332	147.83685	54.92896	
28	0.270	277.27988	150.17842	192.20572	283.59613	147.83421	54.92785	
29	0.280	277.27759	150.17688	192.20659	283.59921	147.83159	54.92687	
30	0.290	277.27426	150.17479	192.20734	283.60318	147.82887	54.92567	
31	0.300	277.27094	150.17267	192.20827	283.60809	147.82602	54.92410	
32	0.310	277.26871	150.17101	192.20961	283.61334	147.82327	54.92233	
33	0.320	277.26819	150.17020	192.21127	283.61798	147.82097	54.92072	
34	0.330	277.26950	150.17044	192.21283	283.62137	147.81923	54.91946	
35	0.340	277.27206	150.17157	192.21361	283.62363	147.81813	54.91852	
36	0.350	277.27484	150.17316	192.21318	283.62561	147.81766	54.91766	
37	0.360	277.27704	150.17473	192.21161	283.62811	147.81784	54.91662	
38	0.370	277.27826	150.17598	192.20941	283.63174	147.81860	54.91523	
39	0.380	277.27866	150.17680	192.20717	283.63675	147.81990	54.91345	
40	0.390	277.27863	150.17729	192.20541	283.64307	147.82159	54.91135	
41	0.400	277.27856	150.17757	192.20438	283.64972	147.82346	54.90929	
42	0.410	277.27863	150.17773	192.20396	283.65475	147.82503	54.90786	
43	0.420	277.27884	150.17792	192.20393	283.65637	147.82594	54.90757	
44	0.430	277.27948	150.17821	192.20433	283.65405	147.82610	54.90856	
45	0.440	277.28104	150.17882	192.20534	283.64847	147.82585	54.91060	
46	0.450	277.28375	150.17984	192.20706	283.64096	147.82568	54.91328	
47	0.460	277.28748	150.18117	192.20943	283.63318	147.82596	54.91607	
48	0.470	277.29144	150.18250	192.21208	283.62677	147.82678	54.91843	
49	0.480	277.29492	150.18352	192.21471	283.62277	147.82797	54.91996	
50	0.490	277.29739	150.18404	192.21710	283.62152	147.82925	54.92058	
51	0.500	277.29874	150.18410	192.21912	283.62210	147.83064	54.92058	
52	0.510	277.29895	150.18378	192.22047	283.62286	147.83212	54.92056	
53	0.520	277.29800	150.18315	192.22093	283.62183	147.83351	54.92115	
54	0.530	277.29593	150.18225	192.22031	283.61807	147.83459	54.92263	
55	0.540	277.29285	150.18115	192.21855	283.61227	147.83502	54.92467	
56	0.550	277.28906	150.17987	192.21587	283.60602	147.83440	54.92668	
57	0.560	277.28497	150.17842	192.21283	283.60022	147.83261	54.92827	
58	0.570	277.28122	150.17690	192.21014	283.59549	147.82993	54.92915	
59	0.580	277.27850	150.17546	192.20830	283.59360	147.82664	54.92860	
60	0.590	277.27722	150.17426	192.20746	283.59689	147.82306	54.92559	
61	0.600	277.27756	150.17346	192.20743	283.60742	147.81924	54.91903	
62	0.610	277.27942	150.17320	192.20792	283.62671	147.81516	54.90801	
63	0.620	277.28214	150.17345	192.20865	283.65564	147.81056	54.89206	
64	0.630	277.28448	150.17410	192.20949	283.69336	147.80525	54.87180	
65	0.640	277.28497	150.17506	192.21053	283.73511	147.79965	54.85007	
66	0.650	277.28235	150.17651	192.21225	283.76971	147.79523	54.83301	
67	0.660	277.27563	150.17885	192.21544	283.77881	147.79465	54.83078	
68	0.670	277.26407	150.18260	192.22084	283.73660	147.80173	54.85773	
69	0.680	277.24753	150.18814	192.22910	283.61093	147.82135	54.93194	
70	0.690	277.22708	150.19556	192.24045	283.36679	147.85909	55.07313	
71	0.700	277.20596	150.20433	192.25427	282.97424	147.92001	55.29821	
72	0.710	277.19046	150.21303	192.26828	282.42111	148.00650	55.61359	
73	0.720	277.19095	150.21898	192.27802	281.73297	148.11484	56.00351	
74	0.730	277.22263	150.21782	192.27658	280.98642	148.23283	56.42266	
75	0.740	277.30533	150.20349	192.25516	280.28534	148.34349	56.81079	
76	0.750	277.46130	150.16875	192.20456	279.70981	148.43282	57.12317	
77	0.760	277.70966	150.10732	192.11838	279.28992	148.49417	57.34521	
78	0.770	278.05643	150.01715	191.99744	279.01669	148.52731	57.48505	
79	0.780	278.47998	149.90427	191.85574	278.86166	148.53609	57.56197	
80	0.790	278.92239	149.78421	191.72295	278.79147	148.52664	57.59861	
81	0.800	279.30789	149.67735	191.63568	278.77747	148.50595	57.61641	
82	0.810	279.57950	149.59973	191.62158	278.80026	148.48026	57.63293	
83	0.820	279.71667	149.55760	191.69244	278.85001	148.45395	57.66085	
84	0.830	279.72733	149.54865	191.84787	278.92358	148.42944	57.70826	
85	0.840	279.63544	149.56589	192.07962	279.02148	148.40810	57.77978	
86	0.850	279.47449	149.60100	192.37329	279.14523	148.39102	57.87746	
87	0.860	279.28888	149.64485	192.70728	279.29443	148.37889	58.00179	
88	0.870	279.13528	149.68681	193.05292	279.46423	148.37141	58.15380	
89	0.880	279.05862	149.71861	193.38701	279.64230	148.36839	58.33744	
90	0.890	279.05432	149.74107	193.71037	279.80206	148.37155	58.56250	
91	0.900	279.07379	149.76227	194.04485	279.90659	148.38441	58.84232	
92	0.910	279.07251	149.78772	194.40904	279.94012	148.40785	59.17842	
93	0.920	279.04105	149.81598	194.80368	279.92786	148.43700	59.55265	
94	0.930	278.99484	149.84319	195.21797	279.90320	148.46663	59.94630	
95	0.940	278.94336	149.86978	195.64529	279.86600	148.49828	60.36132	
96	0.950	278.87949	149.90015	196.08771	279.78513	148.53906	60.81562	
97	0.960	278.80753	149.93401	196.54224	279.64322	148.59280	61.31602	
98	0.970	278.76294	149.96245	196.99228	279.46707	148.65392	61.84289	
99	0.980	278.78125	149.97687	197.42241	279.30475	148.71181	62.36704	
100	0.990	278.85324	149.97945	197.83667	279.19189	148.75789	62.86896	
101	1.000	278.93262	149.98007	198.25317	279.14587	148.78783	63.33846	
102	1.010	278.98627	149.98434	198.68314	279.17136	148.80128	63.76942	
103	1.020	279.01495	149.99028	199.12349	279.26138	148.80048	64.15982	
104	1.030	279.02429	149.99626	199.56995	279.39600	148.78868	64.51551	
105	1.040	279.00443	150.00540	200.02551	279.54010	148.77052	64.85503	
106	1.050	278.95367	150.01996	200.48972	279.65213	148.75244	65.20589	
107	1.060	278.90292	150.03497	200.94754	279.71307	148.74008	65.58455	
108	1.070	278.89053	150.04269	201.38159	279.74210	148.73479	65.98266	
109	1.080	278.91647	150.04274	201.79367	279.76660	148.73470	66.38294	
110	1.090	278.94357	150.04309	202.20306	279.78723	148.73862	66.78276	
111	1.100	278.94748	150.04951	202.62187	279.78226	148.74741	67.19529	
112	1.110	278.94916	150.05769	203.04120	279.74478	148.76085	67.62881	
113	1.120	278.98822	150.05803	203.44537	279.70270	148.77496	68.07304	
114	1.130	279.07208	150.04707	203.83411	279.68985	148.78481	68.51145	
115	1.140	279.17007	150.03046	204.22327	279.71155	148.78909	68.93790	
116	1.150	279.25488	150.01472	204.62614	279.73969	148.79161	69.36225	
117	1.160	279.32565	150.00148	205.04276	279.73041	148.79871	69.80577	
118	1.170	279.38568	149.99089	205.46838	279.66183	148.81311	70.28104	
119	1.180	279.42218	149.98566	205.90424	279.55576	148.83041	70.77561	
120	1.190	279.42487	149.98814	206.35271	279.45319	148.84352	71.26232	
121	1.200	279.40262	149.99757	206.80957	279.38477	148.84842	71.71796	
122	1.210	279.36234	150.01349	207.26994	279.36664	148.84436	72.13019	
123	1.220	279.29514	150.03748	207.73430	279.40320	148.83217	72.49849	
124	1.230	279.20538	150.06725	208.19917	279.48401	148.81400	72.83485	
125	1.240	279.13382	150.09293	208.64883	279.57938	148.79472	73.16385	
126	1.250	279.12561	150.10419	209.06682	279.64801	148.78096	73.51447	
127	1.260	279.17944	150.10060	209.45544	279.67035	148.77609	73.89839	
128	1.270	279.24792	150.09166	209.83527	279.66806	148.77707	74.30025	
129	1.280	279.28848	150.08614	210.22447	279.67395	148.77829	74.69977	
130	1.290	279.29395	150.08530	210.62749	279.69385	148.77710	75.09740	
131	1.300	279.27161	150.08752	211.04489	279.70837	148.77499	75.51128	
132	1.310	279.22147	150.09335	211.48083	279.70908	148.77348	75.95026	
133	1.320	279.15524	150.10193	211.93144	279.71695	148.77071	76.39909	
134	1.330	279.11551	150.10626	212.37665	279.75433	148.76424	76.83711	
135	1.340	279.14719	150.09824	212.79669	279.81281	148.75626	77.26360	
136	1.350	279.25101	150.07771	213.19312	279.86023	148.75288	77.69619	
137	1.360	279.38690	150.05251	213.58398	279.87994	148.75670	78.14476	
138	1.370	279.52158	150.02905	213.98027	279.89160	148.76289	78.59518	
139	1.380	279.64984	150.00844	214.37730	279.92010	148.76523	79.02733	
140	1.390	279.76633	149.99239	214.77002	279.95667	148.76265	79.44052	
141	1.400	279.84424	149.98694	215.16652	279.96362	148.75809	79.85357	
142	1.410	279.85605	149.99651	215.58055	279.91968	148.75148	80.27941	
143	1.420	279.80170	150.01724	216.01645	279.84668	148.73672	80.70792	
144	1.430	279.70508	150.03946	216.46609	279.77640	148.70818	81.12186	
